<?xml version="1.0" ?><!DOCTYPE svg  PUBLIC '-//W3C//DTD SVG 1.1//EN'  'http://www.w3.org/Graphics/SVG/1.1/DTD/svg11.dtd'><svg enable-background="new 0 0 100 100" height="100px" id="Layer_1" version="1.1" viewBox="0 0 100 100" width="100px" xml:space="preserve" xmlns="http://www.w3.org/2000/svg" xmlns:xlink="http://www.w3.org/1999/xlink"><g><circle cx="50" cy="50" fill="#3A66AF" r="45"/><g><path d="M39.636,33.353c-2.925,0-5.731,0.059-7.62,0.148c-0.236,0-0.649,0.148-0.649,0.356v31.929    c0,0.268,0.117,0.355,0.355,0.355h4.516c0.269,0,0.356-0.119,0.356-0.355V54.371c0.797,0,1.182,0.059,2.303,0.059    c6.675,0,12.108-3.24,12.108-10.791C51.005,37.871,47.814,33.353,39.636,33.353z M39.015,49.703c-1.18,0-1.712,0-2.392-0.061    V38.168c0.532-0.029,1.653-0.089,2.835-0.089c3.929,0,6.261,1.902,6.261,5.678C45.719,48.484,42.471,49.703,39.015,49.703z" fill="#FFFFFF"/><path d="M62.552,51.724c-3.131-1.635-3.661-2.379-3.661-3.449c0-0.98,0.798-2.168,3.129-2.168    c1.921,0,3.84,0.504,5.14,1.336c0.296,0.09,0.441-0.059,0.441-0.295v-4.074c0-0.208-0.058-0.445-0.293-0.594    c-0.974-0.446-2.747-0.833-5.288-0.833c-5.168,0-8.15,3.181-8.15,7.015c0,3.42,1.741,5.471,5.936,7.492    c2.984,1.545,3.662,2.498,3.662,3.568c0,1.336-0.974,2.316-3.307,2.316c-1.949,0-4.076-0.533-5.937-1.752    c-0.206-0.148-0.354-0.061-0.354,0.238v4.369c0,0.238,0.03,0.387,0.236,0.477c1.271,0.74,3.484,1.277,6.055,1.277    c4.872,0,8.475-2.557,8.475-7.314C68.635,56.154,67.188,53.984,62.552,51.724z" fill="#FFFFFF"/></g></g></svg>